Coordinates
version=1
nRows=18
nColumns=26
inDegrees=yes

Units are S.I. units (second, meters, Newtons, ...)
If the header above contains a line with 'inDegrees', this indicates whether rotational values are in degrees (yes) or radians (no).

endheader
time	pelvis_tilt	pelvis_list	pelvis_rotation	pelvis_tx	pelvis_ty	pelvis_tz	hip_flexion_r	hip_adduction_r	hip_rotation_r	knee_angle_r	knee_angle_r_beta	ankle_angle_r	subtalar_angle_r	mtp_angle_r	hip_flexion_l	hip_adduction_l	hip_rotation_l	knee_angle_l	knee_angle_l_beta	ankle_angle_l	subtalar_angle_l	mtp_angle_l	lumbar_extension	lumbar_bending	lumbar_rotation
      3.75500000	    -12.86498655	      7.68388484	      0.31278657	     -0.12056807	      1.01255524	     -0.51848668	     29.21947061	    -18.43487772	    -12.42771735	     41.74160467	      0.72852844	      5.59176970	      0.00000000	      0.00000000	     26.86532572	     -2.13054300	    -12.99528821	     39.45780075	      0.68866854	      9.20328809	      0.00000000	      0.00000000	      6.98507240	     -8.35893038	      0.10556812
      3.76000000	    -12.40600001	      7.71447215	      0.24788448	     -0.11854922	      1.02023864	     -0.51819697	     27.95668521	    -18.40026695	    -12.70742285	     40.33744978	      0.70402131	      3.64776180	      0.00000000	      0.00000000	     25.62771576	     -2.01478259	    -13.15385926	     38.02718403	      0.66369957	      7.45759498	      0.00000000	      0.00000000	      6.76668226	     -8.39637948	      0.15779327
      3.76500000	    -11.96228166	      7.71639176	      0.20049164	     -0.11664528	      1.02771208	     -0.51794971	     26.74184866	    -18.34483728	    -13.01097063	     38.96341745	      0.68003992	      1.67822215	      0.00000000	      0.00000000	     24.44083872	     -1.92335088	    -13.28440864	     36.62866492	      0.63929080	      5.70899060	      0.00000000	      0.00000000	      6.54320174	     -8.40238268	      0.17433251
      3.77000000	    -11.54971998	      7.69069408	      0.17389254	     -0.11486633	      1.03492670	     -0.51775166	     25.59959952	    -18.26963369	    -13.33351626	     37.64038651	      0.65694868	     -0.29641552	      0.00000000	      0.00000000	     23.32653828	     -1.85568708	    -13.38493878	     35.27410497	      0.61564927	      3.99126167	      0.00000000	      0.00000000	      6.33077052	     -8.37674576	      0.15956492
      3.77500000	    -11.18198277	      7.63405163	      0.16879617	     -0.11323008	      1.04184477	     -0.51760792	     24.54635416	    -18.16835276	    -13.66575880	     36.37259102	      0.63482147	     -2.23747665	      0.00000000	      0.00000000	     22.30712755	     -1.81740728	    -13.45045510	     33.98331244	      0.59312069	      2.35053883	      0.00000000	      0.00000000	      6.14432864	     -8.31444257	      0.11446273
      3.78000000	    -10.87365466	      7.53793490	      0.18430334	     -0.11175203	      1.04842639	     -0.51752215	     23.59807721	    -18.02774102	    -13.99536518	     35.16177018	      0.61368866	     -4.10052064	      0.00000000	      0.00000000	     21.40794450	     -1.82050401	    -13.47741018	     32.77941130	      0.57210865	      0.83472246	      0.00000000	      0.00000000	      6.00073554	     -8.20480505	      0.04172960
      3.78500000	    -10.63237962	      7.40478781	      0.21924433	     -0.11043638	      1.05463173	     -0.51749315	     22.76934873	    -17.85096605	    -14.31138322	     34.02523808	      0.59385243	     -5.83692509	      0.00000000	      0.00000000	     20.64481766	     -1.86637521	    -13.47067586	     31.68279959	      0.55296917	     -0.50351916	      0.00000000	      0.00000000	      5.90945962	     -8.04992170	     -0.05578449
      3.79000000	    -10.47015625	      7.23854680	      0.27071004	     -0.10929963	      1.06040809	     -0.51751359	     22.08516662	    -17.64200131	    -14.59730357	     32.98887879	      0.57576455	     -7.38198361	      0.00000000	      0.00000000	     20.04340861	     -1.95693648	    -13.43753714	     30.72581548	      0.53626665	     -1.62373221	      0.00000000	      0.00000000	      5.88438402	     -7.85457809	     -0.17110486
      3.79500000	    -10.38419567	      7.04046765	      0.33523038	     -0.10834375	      1.06573141	     -0.51758003	     21.54580213	    -17.40345800	    -14.84652421	     32.06319039	      0.55960824	     -8.68783737	      0.00000000	      0.00000000	     19.60985981	     -2.09491065	    -13.38676023	     29.93319133	      0.52243274	     -2.49404548	      0.00000000	      0.00000000	      5.92337978	     -7.62004329	     -0.30258886
      3.80000000	    -10.36796533	      6.81671838	      0.40742733	     -0.10755382	      1.07058057	     -0.51768403	     21.15091473	    -17.14449057	    -15.05503113	     31.26710416	      0.54571392	     -9.72221658	      0.00000000	      0.00000000	     19.34274227	     -2.28043630	    -13.33965326	     29.32429041	      0.51180542	     -3.09834988	      0.00000000	      0.00000000	      6.02190125	     -7.35323783	     -0.44246207
      3.80500000	    -10.40599766	      6.58339324	      0.48487247	     -0.10691499	      1.07495084	     -0.51781939	     20.89295159	    -16.88957196	    -15.22863936	     30.62553356	      0.53451640	    -10.46907056	      0.00000000	      0.00000000	     19.22585760	     -2.49691269	    -13.30922596	     28.90615550	      0.50450759	     -3.43415333	      0.00000000	      0.00000000	      6.16336462	     -7.07330876	     -0.58641281
      3.81000000	    -10.47438249	      6.35058906	      0.56156497	     -0.10639890	      1.07886479	     -0.51797479	     20.74828805	    -16.65267469	    -15.37586117	     30.14853051	      0.52619112	    -10.93029686	      0.00000000	      0.00000000	     19.22764810	     -2.73593157	    -13.31221314	     28.67475913	      0.50046896	     -3.52174119	      0.00000000	      0.00000000	      6.32329071	     -6.79202084	     -0.72718938
      3.81500000	    -10.54596872	      6.12952822	      0.63558681	     -0.10596554	      1.08236202	     -0.51815003	     20.68317417	    -16.45053217	    -15.51459292	     29.83516335	      0.52072183	    -11.13420640	      0.00000000	      0.00000000	     19.30405354	     -2.98133652	    -13.35266518	     28.60476734	      0.49924737	     -3.39391584	      0.00000000	      0.00000000	      6.47365983	     -6.52158226	     -0.86274812
      3.82000000	    -10.59939343	      5.93389153	      0.70548375	     -0.10558774	      1.08548757	     -0.51834038	     20.67460438	    -16.30135985	    -15.65441217	     29.68778868	      0.51814966	    -11.11275496	      0.00000000	      0.00000000	     19.41591991	     -3.21378369	    -13.42929688	     28.66529180	      0.50030372	     -3.09302236	      0.00000000	      0.00000000	      6.59206593	     -6.27881003	     -0.98996828
      3.82500000	    -10.60659603	      5.76234649	      0.76994989	     -0.10523521	      1.08830924	     -0.51854708	     20.67600410	    -16.20217241	    -15.80876800	     29.67836184	      0.51798513	    -10.91271887	      0.00000000	      0.00000000	     19.51514813	     -3.42946671	    -13.53436197	     28.82088109	      0.50301927	     -2.66649513	      0.00000000	      0.00000000	      6.64768463	     -6.06115058	     -1.10863560
      3.83000000	    -10.55773316	      5.61584997	      0.82921439	     -0.10488638	      1.09088226	     -0.51877113	     20.66176834	    -16.14976335	    -15.97830541	     29.77632407	      0.51969489	    -10.57856556	      0.00000000	      0.00000000	     19.57248942	     -3.61914418	    -13.65350881	     29.03214207	      0.50670647	     -2.16822967	      0.00000000	      0.00000000	      6.63105888	     -5.86930863	     -1.21719154
      3.83500000	    -10.44574697	      5.49016517	      0.88038994	     -0.10452702	      1.09325335	     -0.51901049	     20.60968057	    -16.13342856	    -16.15882833	     29.94929144	      0.52271374	    -10.15553494	      0.00000000	      0.00000000	     19.56391918	     -3.78326638	    -13.77838795	     29.26582258	      0.51078496	     -1.63822661	      0.00000000	      0.00000000	      6.53572650	     -5.69704462	     -1.31204068
      3.84000000	    -10.26868656	      5.38165994	      0.92535108	     -0.10415368	      1.09546526	     -0.51926236	     20.50312025	    -16.14371555	    -16.34702811	     30.16601167	      0.52649623	     -9.68173154	      0.00000000	      0.00000000	     19.47633767	     -3.92059527	    -13.89522496	     29.49546883	      0.51479305	     -1.11428957	      0.00000000	      0.00000000	      6.35948724	     -5.54089859	     -1.39465920
